<svg id="Layer_1" data-name="Layer 1" xmlns="http://www.w3.org/2000/svg" viewBox="0 0 585.79 168.46"><defs><style>.cls-1{fill:#fff0c3;}.cls-1,.cls-10,.cls-11,.cls-13,.cls-14,.cls-15,.cls-16,.cls-17,.cls-18,.cls-20,.cls-21,.cls-22,.cls-4,.cls-6,.cls-7,.cls-8{stroke:#2b2b2b;}.cls-1,.cls-10,.cls-11,.cls-13,.cls-14,.cls-15,.cls-16,.cls-17,.cls-18,.cls-19,.cls-2,.cls-20,.cls-21,.cls-22,.cls-4,.cls-6,.cls-7,.cls-8,.cls-9{stroke-miterlimit:10;}.cls-1,.cls-13,.cls-19,.cls-2,.cls-3,.cls-4{stroke-width:0.5px;}.cls-12,.cls-14,.cls-2,.cls-4{fill:#fff;}.cls-2,.cls-3{stroke:#231f20;}.cls-10,.cls-11,.cls-13,.cls-19,.cls-3,.cls-6,.cls-7,.cls-8{fill:none;}.cls-3{stroke-linecap:round;stroke-linejoin:round;stroke-dasharray:1 2;}.cls-5{fill:#fef9c5;}.cls-10,.cls-11,.cls-14,.cls-15,.cls-16,.cls-17,.cls-18,.cls-20,.cls-21,.cls-22,.cls-6,.cls-7,.cls-8,.cls-9{stroke-width:0.25px;}.cls-7{stroke-dasharray:2.09 2.09;}.cls-8{stroke-dasharray:2.25 2.25;}.cls-9{fill:#fef5a0;stroke:#212121;}.cls-10{stroke-dasharray:1.98 1.98;}.cls-11,.cls-14,.cls-15,.cls-16,.cls-17,.cls-20,.cls-21{stroke-dasharray:2 2;}.cls-15{fill:#fbf8c8;}.cls-16,.cls-18{fill:#fcf5a4;}.cls-17{fill:#fbf8c9;}.cls-19{stroke:#ed6d23;}.cls-20{fill:#fcf8c7;}.cls-21{fill:#fdf8c6;}.cls-22{fill:#fdf5a2;}.cls-23{font-size:7.65px;fill:#231f20;font-family:Times New Roman;}</style></defs><title>AlexNet</title><rect class="cls-1" x="38.85" y="0.68" width="4.6" height="111.09"/><rect class="cls-2" x="491.54" y="20.3" width="17.24" height="115.31" rx="2.75" ry="2.75"/><circle class="cls-2" cx="500.23" cy="34.73" r="6.03"/><circle class="cls-2" cx="500.23" cy="53.48" r="6.03"/><circle class="cls-2" cx="500.23" cy="72.23" r="6.03"/><circle class="cls-2" cx="500.23" cy="121.16" r="6.03"/><line class="cls-3" x1="500.16" y1="84.84" x2="500.16" y2="109.74"/><rect class="cls-2" x="529.92" y="20.3" width="17.24" height="115.31" rx="2.75" ry="2.75"/><circle class="cls-2" cx="538.61" cy="34.73" r="6.03"/><circle class="cls-2" cx="538.61" cy="53.48" r="6.03"/><circle class="cls-2" cx="538.61" cy="72.23" r="6.03"/><circle class="cls-2" cx="538.61" cy="121.16" r="6.03"/><line class="cls-3" x1="538.54" y1="84.84" x2="538.54" y2="109.74"/><rect class="cls-4" x="0.54" y="45.88" width="4.6" height="111.09"/><polygon class="cls-4" points="0.54 45.88 38.85 0.68 43.44 0.68 5.14 45.88 0.54 45.88"/><polygon class="cls-4" points="0.54 45.88 38.85 0.68 43.44 0.68 5.14 45.88 0.54 45.88"/><polygon class="cls-4" points="5.14 156.98 43.44 111.77 43.44 0.68 5.14 45.88 5.14 156.98"/><rect class="cls-5" x="13.95" y="68.95" width="4.6" height="33.33"/><polyline class="cls-6" points="13.95 101.27 13.95 102.27 14.95 102.27"/><polyline class="cls-6" points="17.54 102.27 18.54 102.27 18.54 101.27"/><line class="cls-7" x1="18.54" y1="99.18" x2="18.54" y2="70.99"/><polyline class="cls-6" points="18.54 69.95 18.54 68.95 17.54 68.95"/><polyline class="cls-6" points="14.95 68.95 13.95 68.95 13.95 69.95"/><line class="cls-7" x1="13.95" y1="72.03" x2="13.95" y2="100.23"/><polygon class="cls-5" points="13.95 68.95 18.54 68.95 30.04 55.38 25.44 55.38 13.95 68.95"/><polyline class="cls-6" points="14.59 68.18 13.95 68.95 14.95 68.95"/><polyline class="cls-6" points="17.54 68.95 18.54 68.95 19.19 68.18"/><line class="cls-8" x1="20.65" y1="66.46" x2="28.66" y2="57.01"/><polyline class="cls-6" points="29.39 56.15 30.04 55.38 29.04 55.38"/><polyline class="cls-6" points="26.44 55.38 25.44 55.38 24.79 56.15"/><line class="cls-8" x1="23.34" y1="57.87" x2="15.32" y2="67.32"/><polygon class="cls-9" points="18.54 102.27 30.04 88.71 30.04 55.38 18.54 68.95 18.54 102.27"/><line class="cls-6" x1="0.54" y1="156.98" x2="1.19" y2="156.21"/><polyline class="cls-10" points="2.47 154.7 38.85 111.77 38.85 2.67"/><line class="cls-6" x1="38.85" y1="1.68" x2="38.85" y2="0.68"/><line class="cls-11" x1="38.85" y1="111.77" x2="43.44" y2="111.77"/><rect class="cls-12" x="237.25" y="54.65" width="57.46" height="34.32"/><polygon class="cls-13" points="219.2 71.47 237.25 54.65 294.71 54.65 276.66 71.47 219.2 71.47"/><polygon class="cls-14" points="219.2 105.79 237.25 88.98 294.71 88.98 276.66 105.79 219.2 105.79"/><polygon class="cls-13" points="276.66 105.79 294.71 88.98 294.71 54.65 276.66 71.47 276.66 105.79"/><line class="cls-14" x1="237.25" y1="54.65" x2="237.25" y2="88.98"/><rect class="cls-15" x="225.91" y="78.4" width="57.53" height="8.58"/><line class="cls-16" x1="230.42" y1="82.78" x2="287.95" y2="82.78"/><polygon class="cls-17" points="230.42 74.2 287.94 74.2 283.43 78.4 225.91 78.4 230.42 74.2"/><polygon class="cls-18" points="283.43 86.98 287.94 82.78 287.94 74.2 283.43 78.4 283.43 86.98"/><polygon class="cls-11" points="225.91 86.98 230.42 82.78 230.42 74.2 225.91 78.4 225.91 86.98"/><rect class="cls-13" x="219.2" y="71.47" width="57.46" height="34.32"/><rect class="cls-2" x="568.3" y="34.67" width="17.24" height="86.56" rx="2.75" ry="2.75"/><circle class="cls-2" cx="576.92" cy="49.11" r="6.03"/><circle class="cls-2" cx="576.92" cy="67.85" r="6.03"/><circle class="cls-2" cx="576.92" cy="105.03" r="6.03"/><line class="cls-3" x1="576.92" y1="80.25" x2="576.92" y2="95.97"/><rect class="cls-12" x="424.73" y="55.83" width="46.85" height="34.32"/><polygon class="cls-13" points="410.01 72.64 424.73 55.83 471.58 55.83 456.86 72.64 410.01 72.64"/><polygon class="cls-14" points="410.01 106.97 424.73 90.15 471.58 90.15 456.86 106.97 410.01 106.97"/><polygon class="cls-13" points="456.86 106.97 471.58 90.15 471.58 55.83 456.86 72.64 456.86 106.97"/><line class="cls-14" x1="424.73" y1="55.83" x2="424.73" y2="90.15"/><rect class="cls-15" x="415.47" y="79.58" width="46.91" height="8.58"/><line class="cls-16" x1="419.15" y1="83.95" x2="466.06" y2="83.95"/><polygon class="cls-17" points="419.15 75.37 466.06 75.37 462.38 79.58 415.48 79.58 419.15 75.37"/><polygon class="cls-18" points="462.38 88.16 466.06 83.95 466.06 75.37 462.38 79.58 462.38 88.16"/><polygon class="cls-11" points="415.48 88.16 419.15 83.95 419.15 75.37 415.48 79.58 415.48 88.16"/><rect class="cls-13" x="410.01" y="72.64" width="46.85" height="34.32"/><polyline class="cls-19" points="30.04 55.38 67.32 79.78 18.54 68.95"/><polyline class="cls-19" points="30.04 88.71 66.22 80.72 18.54 102.27"/><polyline class="cls-19" points="95.07 67.85 126.72 80.22 95.07 84.17"/><rect class="cls-13" x="89.99" y="37.82" width="14.56" height="54.4"/><polygon class="cls-4" points="62.92 69.23 89.99 37.82 104.55 37.82 77.48 69.23 62.92 69.23"/><polygon class="cls-13" points="77.48 123.63 77.48 69.23 104.55 37.82 104.55 92.21 77.48 123.63"/><polygon class="cls-11" points="62.92 123.63 89.99 92.21 104.55 92.21 77.48 123.63 62.92 123.63"/><line class="cls-11" x1="89.99" y1="92.21" x2="89.99" y2="37.82"/><polygon class="cls-11" points="72.39 93.59 72.39 77.27 80.52 67.85 80.52 84.17 72.39 93.59"/><rect class="cls-20" x="72.4" y="77.27" width="14.56" height="16.32"/><polygon class="cls-21" points="95.07 67.85 80.52 67.85 72.39 77.27 86.95 77.27 95.07 67.85"/><polygon class="cls-11" points="80.52 84.17 95.07 84.17 86.95 93.59 72.39 93.59 80.52 84.17"/><polygon class="cls-22" points="86.95 93.59 86.95 77.27 95.07 67.85 95.07 84.17 86.95 93.59"/><rect class="cls-13" x="62.92" y="69.23" width="14.56" height="54.4"/><line class="cls-20" x1="80.52" y1="67.85" x2="80.52" y2="84.17"/><rect class="cls-12" x="141.3" y="46.35" width="57.46" height="42.9"/><polygon class="cls-13" points="123.25 67.37 141.3 46.34 198.77 46.34 180.71 67.37 123.25 67.37"/><polygon class="cls-14" points="123.25 110.27 141.3 89.25 198.77 89.25 180.71 110.27 123.25 110.27"/><polygon class="cls-13" points="180.71 110.27 198.77 89.25 198.77 46.34 180.71 67.37 180.71 110.27"/><line class="cls-14" x1="141.3" y1="46.35" x2="141.3" y2="89.25"/><rect class="cls-15" x="129.96" y="76.03" width="57.53" height="10.73"/><polygon class="cls-17" points="134.47 70.78 192 70.78 187.48 76.03 129.96 76.03 134.47 70.78"/><line class="cls-16" x1="134.47" y1="81.5" x2="192" y2="81.5"/><polygon class="cls-18" points="187.48 86.76 192 81.5 192 70.78 187.48 76.03 187.48 86.76"/><polygon class="cls-11" points="129.96 86.76 134.47 81.5 134.47 70.78 129.96 76.03 129.96 86.76"/><rect class="cls-13" x="123.25" y="67.37" width="57.46" height="42.9"/><polyline class="cls-19" points="86.95 77.27 126.72 80.22 86.95 93.59"/><polyline class="cls-19" points="192 70.78 222.12 81.86 187.48 76.03"/><polyline class="cls-19" points="192 81.5 222.12 81.86 187.48 86.76"/><polyline class="cls-19" points="287.94 74.2 318.07 84.23 283.43 78.4"/><polyline class="cls-19" points="287.94 82.78 318.07 84.23 283.43 86.98"/><rect class="cls-12" x="332.59" y="54.65" width="57.46" height="34.32"/><polygon class="cls-13" points="314.54 71.47 332.59 54.65 390.05 54.65 372 71.47 314.54 71.47"/><polygon class="cls-14" points="314.54 105.79 332.59 88.98 390.05 88.98 372 105.79 314.54 105.79"/><polygon class="cls-13" points="372 105.79 390.05 88.98 390.05 54.65 372 71.47 372 105.79"/><line class="cls-14" x1="332.59" y1="54.65" x2="332.59" y2="88.98"/><rect class="cls-15" x="321.24" y="78.4" width="57.53" height="8.58"/><line class="cls-16" x1="325.75" y1="82.78" x2="383.28" y2="82.78"/><polygon class="cls-17" points="325.75 74.2 383.28 74.2 378.76 78.4 321.24 78.4 325.75 74.2"/><polygon class="cls-18" points="378.76 86.98 383.28 82.78 383.28 74.2 378.76 78.4 378.76 86.98"/><polygon class="cls-11" points="321.24 86.98 325.75 82.78 325.75 74.2 321.24 78.4 321.24 86.98"/><rect class="cls-13" x="314.53" y="71.47" width="57.46" height="34.32"/><polyline class="cls-19" points="383.28 74.2 413.41 84.23 378.76 78.4"/><polyline class="cls-19" points="383.28 82.78 413.41 84.23 378.76 86.98"/><path class="cls-19" d="M470.58,115.84" transform="translate(-4.52 -40.47)"/><text class="cls-23" transform="translate(64.78 131.95)">96</text><text class="cls-23" transform="translate(146.4 118.24)">256</text><text class="cls-23" transform="translate(95.07 112.19)">55</text><text class="cls-23" transform="translate(192 104.53)">27</text><text class="cls-23" transform="translate(201.88 65.01)">27</text><text class="cls-23" transform="translate(296.21 69.23)">13</text><text class="cls-23" transform="translate(287.95 102.27)">13</text><text class="cls-23" transform="translate(391.52 68.91)">13</text><text class="cls-23" transform="translate(384.91 101.95)">13</text><text class="cls-23" transform="translate(473.16 70.11)">13</text><text class="cls-23" transform="translate(466.22 103.15)">13</text><text class="cls-23" transform="translate(108.02 65.01)">55</text><text class="cls-23" transform="translate(48.72 36)">224</text><text class="cls-23" transform="translate(28.03 139.65)">224</text><text class="cls-23" transform="translate(0.92 166.12)">3</text><text class="cls-23" transform="translate(244.4 115.13)">384</text><text class="cls-23" transform="translate(336.73 113.19)">384</text><text class="cls-23" transform="translate(428.07 114.13)">256</text><text class="cls-23" transform="translate(492.54 144.8)">4096</text><text class="cls-23" transform="translate(531.21 144.8)">4096</text><text class="cls-23" transform="translate(569.3 129.46)">1000</text></svg>