<svg id="Layer_1" data-name="Layer 1" xmlns="http://www.w3.org/2000/svg" viewBox="0 0 457.99 191.53"><defs><style>.cls-1,.cls-2,.cls-4,.cls-5,.cls-6{fill:none;}.cls-1,.cls-2,.cls-4{stroke:#414042;stroke-width:0.5px;}.cls-1,.cls-2,.cls-4,.cls-5,.cls-6,.cls-8{stroke-miterlimit:10;}.cls-2{stroke-dasharray:2.17 2.17;}.cls-3{fill:#414042;}.cls-4{stroke-dasharray:2 2;}.cls-5{stroke:#ed1c24;}.cls-6,.cls-8{stroke:#231f20;}.cls-7,.cls-9{fill:#231f20;}.cls-8{fill:#fff;}.cls-9{font-size:12px;font-family:Times New Roman;}</style></defs><title>FFNN</title><line class="cls-1" x1="115.17" y1="88.71" x2="115.17" y2="87.71"/><line class="cls-2" x1="115.17" y1="85.54" x2="115.17" y2="77.94"/><line class="cls-1" x1="115.17" y1="76.85" x2="115.17" y2="75.85"/><path class="cls-3" d="M179.68,86.8l-1.8,1.1,0-.06L179,84.89l0.68-3.07,0.68,3.07,1.17,2.94,0,0.06Z" transform="translate(-64.51 -10.05)"/><path class="cls-4" d="M269.6,35.7c-2.56-3-5-8.5.77-15.86,9.1-11.67,20.86,0,20.86,0s6.58,9.83-1,18.85" transform="translate(-64.51 -10.05)"/><path class="cls-3" d="M269,35l-2,.56,0,0.07,2.94,1.16,2.7,1.61-1.77-2.6-1.34-2.86-0.07,0Z" transform="translate(-64.51 -10.05)"/><line class="cls-4" x1="126.76" y1="148.83" x2="302.87" y2="148.83"/><path class="cls-3" d="M366.48,158.88l-1.1-1.8,0.06,0,2.94,1.17,3.07,0.68-3.07.68-2.94,1.17-0.06,0Z" transform="translate(-64.51 -10.05)"/><path class="cls-4" d="M371.45,19.5S334.79,5.36,293.27,36" transform="translate(-64.51 -10.05)"/><path class="cls-3" d="M294,35.5l2,0.77,0,0.07-3,.85L290,38.51l2-2.39,1.63-2.71h0.07Z" transform="translate(-64.51 -10.05)"/><line class="cls-5" x1="211.6" y1="8.85" x2="220.1" y2="0.35"/><line class="cls-5" x1="220.1" y1="8.85" x2="211.6" y2="0.35"/><line class="cls-5" x1="110.92" y1="77.28" x2="119.42" y2="85.77"/><line class="cls-5" x1="119.42" y1="77.28" x2="110.92" y2="85.77"/><line class="cls-5" x1="212.6" y1="144.58" x2="221.1" y2="153.08"/><line class="cls-5" x1="221.1" y1="144.58" x2="212.6" y2="153.08"/><line class="cls-5" x1="261.99" y1="4" x2="270.48" y2="12.49"/><line class="cls-5" x1="270.48" y1="4" x2="261.99" y2="12.49"/><line class="cls-6" x1="432.97" y1="59.02" x2="449.84" y2="59.02"/><path class="cls-7" d="M512.55,69.07l-2.19-3.6,0.12-.08,5.88,2.33,6.14,1.35-6.14,1.35-5.87,2.33-0.12-.06Z" transform="translate(-64.51 -10.05)"/><line class="cls-6" x1="432.97" y1="101.46" x2="449.84" y2="101.46"/><path class="cls-7" d="M512.55,111.51l-2.19-3.6,0.12-.08,5.88,2.33,6.14,1.35-6.14,1.35-5.87,2.33-0.12-.06Z" transform="translate(-64.51 -10.05)"/><circle class="cls-8" cx="115.17" cy="16.57" r="12.76"/><circle class="cls-8" cx="115.17" cy="59.02" r="12.76"/><circle class="cls-8" cx="115.17" cy="101.46" r="12.76"/><circle class="cls-8" cx="115.17" cy="143.91" r="12.76"/><circle class="cls-8" cx="318.53" cy="16.57" r="12.76"/><circle class="cls-8" cx="318.53" cy="59.02" r="12.76"/><circle class="cls-8" cx="318.53" cy="101.46" r="12.76"/><circle class="cls-8" cx="318.53" cy="143.91" r="12.76"/><circle class="cls-8" cx="216.85" cy="37.79" r="12.76"/><circle class="cls-8" cx="216.85" cy="80.24" r="12.76"/><circle class="cls-8" cx="216.85" cy="122.69" r="12.76"/><circle class="cls-8" cx="13.49" cy="33.24" r="8.5"/><circle class="cls-8" cx="13.49" cy="80.24" r="8.5"/><circle class="cls-8" cx="13.49" cy="127.24" r="8.5"/><circle class="cls-8" cx="420.21" cy="59.02" r="12.76"/><circle class="cls-8" cx="420.21" cy="101.46" r="12.76"/><text class="cls-9" transform="translate(98.84 173.45)">hidden<tspan x="2.84" y="14.4">layer </tspan></text><text class="cls-9" transform="translate(200.52 173.45)">hidden<tspan x="2.84" y="14.4">layer </tspan></text><text class="cls-9" transform="translate(302.2 173.45)">hidden<tspan x="2.84" y="14.4">layer </tspan></text><text class="cls-9" transform="translate(404.86 173.45)">output<tspan x="1.84" y="14.4">layer </tspan></text><text class="cls-9" transform="translate(1.16 173.45)">input<tspan x="-1.16" y="14.4">layer </tspan></text><line class="cls-1" x1="22" y1="33.24" x2="102.41" y2="16.57"/><line class="cls-1" x1="22" y1="33.24" x2="58.21" y2="25.85"/><path class="cls-3" d="M121.84,36.08l-1.43-1.55,0.05-.05L123.57,35l3.14,0-2.87,1.28-2.65,1.73-0.07,0Z" transform="translate(-64.51 -10.05)"/><line class="cls-1" x1="22" y1="33.24" x2="102.41" y2="59.02"/><line class="cls-1" x1="22" y1="33.24" x2="102.41" y2="101.46"/><line class="cls-1" x1="22" y1="33.24" x2="102.41" y2="143.91"/><line class="cls-1" x1="22" y1="80.24" x2="102.41" y2="16.57"/><line class="cls-1" x1="22" y1="80.24" x2="102.41" y2="59.02"/><line class="cls-1" x1="22" y1="80.24" x2="102.41" y2="101.46"/><line class="cls-1" x1="22" y1="80.24" x2="102.41" y2="143.91"/><line class="cls-1" x1="22" y1="127.24" x2="102.41" y2="16.57"/><line class="cls-1" x1="22" y1="127.24" x2="102.41" y2="59.02"/><line class="cls-1" x1="22" y1="127.24" x2="102.41" y2="101.46"/><line class="cls-1" x1="22" y1="127.24" x2="102.41" y2="143.91"/><line class="cls-1" x1="21.75" y1="127.05" x2="56.55" y2="134.51"/><polygon class="cls-3" points="60 135.25 54.71 136.2 56.29 134.46 55.56 132.22 60 135.25"/><line class="cls-1" x1="305.63" y1="16.57" x2="229.46" y2="37.79"/><line class="cls-1" x1="305.63" y1="16.57" x2="229.46" y2="80.24"/><line class="cls-1" x1="305.63" y1="16.57" x2="229.46" y2="122.69"/><line class="cls-1" x1="305.63" y1="59.02" x2="229.46" y2="37.79"/><line class="cls-1" x1="305.63" y1="59.02" x2="229.46" y2="80.24"/><line class="cls-1" x1="305.63" y1="59.02" x2="229.46" y2="122.69"/><line class="cls-1" x1="305.63" y1="101.46" x2="229.46" y2="37.79"/><line class="cls-1" x1="305.63" y1="101.46" x2="229.46" y2="80.24"/><line class="cls-1" x1="305.63" y1="101.46" x2="229.46" y2="122.69"/><line class="cls-1" x1="305.63" y1="143.91" x2="229.46" y2="37.79"/><line class="cls-1" x1="305.63" y1="143.91" x2="229.46" y2="80.24"/><line class="cls-1" x1="305.63" y1="143.91" x2="229.46" y2="122.69"/><line class="cls-1" x1="229.46" y1="37.79" x2="262.31" y2="28.64"/><path class="cls-3" d="M326,38.93l-1.54-1.44,0-.06,3.14,0.34,3.14-.17L328,39.07,325.45,41h-0.07Z" transform="translate(-64.51 -10.05)"/><line class="cls-1" x1="229.61" y1="122.69" x2="259.6" y2="131.08"/><polygon class="cls-3" points="263 132.03 257.67 132.65 259.35 131.01 258.76 128.74 263 132.03"/><line class="cls-1" x1="127.93" y1="16.57" x2="204.09" y2="37.79"/><line class="cls-1" x1="127.93" y1="16.57" x2="204.09" y2="80.24"/><line class="cls-1" x1="127.93" y1="16.57" x2="204.09" y2="122.69"/><line class="cls-1" x1="127.93" y1="59.02" x2="204.09" y2="37.79"/><line class="cls-1" x1="127.93" y1="59.02" x2="204.09" y2="80.24"/><line class="cls-1" x1="127.93" y1="59.02" x2="204.09" y2="122.69"/><line class="cls-1" x1="127.93" y1="101.46" x2="204.09" y2="37.79"/><line class="cls-1" x1="127.93" y1="101.46" x2="204.09" y2="80.24"/><line class="cls-1" x1="127.93" y1="101.46" x2="204.09" y2="122.69"/><line class="cls-1" x1="127.93" y1="143.91" x2="204.09" y2="37.79"/><line class="cls-1" x1="127.93" y1="143.91" x2="204.09" y2="80.24"/><line class="cls-1" x1="127.93" y1="143.91" x2="204.09" y2="122.69"/><line class="cls-1" x1="127.93" y1="143.91" x2="162.61" y2="134.25"/><polygon class="cls-3" points="166.01 133.3 161.76 136.59 162.36 134.32 160.67 132.68 166.01 133.3"/><line class="cls-1" x1="127.65" y1="16.5" x2="162.91" y2="26.32"/><path class="cls-3" d="M226.56,36.13l-0.57-2,0.07,0L228.57,36l2.78,1.47-3.14-.17-3.14.34-0.05,0Z" transform="translate(-64.51 -10.05)"/><line class="cls-1" x1="331.29" y1="16.57" x2="407.45" y2="59.02"/><line class="cls-1" x1="331.29" y1="59.02" x2="407.45" y2="101.46"/><line class="cls-1" x1="331.29" y1="16.57" x2="407.45" y2="101.46"/><line class="cls-1" x1="331.29" y1="59.02" x2="407.45" y2="59.02"/><line class="cls-1" x1="331.43" y1="143.91" x2="407.6" y2="101.46"/><line class="cls-1" x1="331.43" y1="101.46" x2="407.6" y2="59.02"/><line class="cls-1" x1="331.43" y1="143.91" x2="407.6" y2="59.02"/><line class="cls-1" x1="331.43" y1="101.46" x2="407.6" y2="101.46"/><line class="cls-1" x1="331.28" y1="143.95" x2="365.2" y2="125.09"/><polygon class="cls-3" points="368.28 123.37 364.92 127.56 364.96 125.21 362.94 124.01 368.28 123.37"/><line class="cls-1" x1="331" y1="16.53" x2="362.97" y2="34.24"/><path class="cls-3" d="M426.7,43.86l-0.09-2.11h0.07l2,2.44L431,46.27l-3-.9L424.9,45l0-.06Z" transform="translate(-64.51 -10.05)"/></svg>